solid ASCII
  facet normal 0.000000e+00 0.000000e+00 -1.000000e+00
    outer loop
      vertex   -2.157445e+01 1.310000e+01 -3.658422e+01
      vertex   -3.757445e+01 1.310000e+01 -3.658422e+01
      vertex   -2.157445e+01 1.410000e+01 -3.658422e+01
    endloop
  endfacet
  facet normal -0.000000e+00 0.000000e+00 -1.000000e+00
    outer loop
      vertex   -2.157445e+01 1.410000e+01 -3.658422e+01
      vertex   -3.757445e+01 1.310000e+01 -3.658422e+01
      vertex   -3.757445e+01 1.410000e+01 -3.658422e+01
    endloop
  endfacet
  facet normal -1.000000e+00 0.000000e+00 0.000000e+00
    outer loop
      vertex   -2.157445e+01 1.310000e+01 -4.528422e+01
      vertex   -2.157445e+01 1.310000e+01 -3.658422e+01
      vertex   -2.157445e+01 1.410000e+01 -4.528422e+01
    endloop
  endfacet
  facet normal -1.000000e+00 0.000000e+00 0.000000e+00
    outer loop
      vertex   -2.157445e+01 1.410000e+01 -4.528422e+01
      vertex   -2.157445e+01 1.310000e+01 -3.658422e+01
      vertex   -2.157445e+01 1.410000e+01 -3.658422e+01
    endloop
  endfacet
  facet normal 0.000000e+00 0.000000e+00 1.000000e+00
    outer loop
      vertex   -3.757445e+01 1.310000e+01 -4.528422e+01
      vertex   -2.157445e+01 1.310000e+01 -4.528422e+01
      vertex   -3.757445e+01 1.410000e+01 -4.528422e+01
    endloop
  endfacet
  facet normal -0.000000e+00 0.000000e+00 1.000000e+00
    outer loop
      vertex   -3.757445e+01 1.410000e+01 -4.528422e+01
      vertex   -2.157445e+01 1.310000e+01 -4.528422e+01
      vertex   -2.157445e+01 1.410000e+01 -4.528422e+01
    endloop
  endfacet
  facet normal 1.000000e+00 -0.000000e+00 0.000000e+00
    outer loop
      vertex   -3.757445e+01 1.310000e+01 -3.658422e+01
      vertex   -3.757445e+01 1.310000e+01 -4.528422e+01
      vertex   -3.757445e+01 1.410000e+01 -3.658422e+01
    endloop
  endfacet
  facet normal 1.000000e+00 0.000000e+00 0.000000e+00
    outer loop
      vertex   -3.757445e+01 1.410000e+01 -3.658422e+01
      vertex   -3.757445e+01 1.310000e+01 -4.528422e+01
      vertex   -3.757445e+01 1.410000e+01 -4.528422e+01
    endloop
  endfacet
  facet normal 0.000000e+00 0.000000e+00 -1.000000e+00
    outer loop
      vertex   -5.380000e+01 1.310000e+01 -2.120000e+01
      vertex   -4.430000e+01 1.310000e+01 -2.120000e+01
      vertex   -5.380000e+01 9.000000e+00 -2.120000e+01
    endloop
  endfacet
  facet normal 0.000000e+00 0.000000e+00 -1.000000e+00
    outer loop
      vertex   -5.380000e+01 9.000000e+00 -2.120000e+01
      vertex   -4.430000e+01 1.310000e+01 -2.120000e+01
      vertex   -4.430000e+01 9.000000e+00 -2.120000e+01
    endloop
  endfacet
  facet normal 1.000000e+00 0.000000e+00 -0.000000e+00
    outer loop
      vertex   -4.430000e+01 1.310000e+01 -2.120000e+01
      vertex   -4.430000e+01 1.310000e+01 -2.000000e+01
      vertex   -4.430000e+01 9.000000e+00 -2.120000e+01
    endloop
  endfacet
  facet normal 1.000000e+00 0.000000e+00 0.000000e+00
    outer loop
      vertex   -4.430000e+01 9.000000e+00 -2.120000e+01
      vertex   -4.430000e+01 1.310000e+01 -2.000000e+01
      vertex   -4.430000e+01 9.000000e+00 -2.000000e+01
    endloop
  endfacet
  facet normal -1.000000e+00 -0.000000e+00 -3.640075e-17
    outer loop
      vertex   -1.200000e+00 1.310000e+01 -2.000000e+01
      vertex   -1.200000e+00 1.310000e+01 -3.220000e+01
      vertex   -1.200000e+00 9.000000e+00 -2.000000e+01
    endloop
  endfacet
  facet normal -1.000000e+00 0.000000e+00 -3.640075e-17
    outer loop
      vertex   -1.200000e+00 9.000000e+00 -2.000000e+01
      vertex   -1.200000e+00 1.310000e+01 -3.220000e+01
      vertex   -1.200000e+00 9.000000e+00 -3.220000e+01
    endloop
  endfacet
  facet normal 0.000000e+00 0.000000e+00 1.000000e+00
    outer loop
      vertex   -1.200000e+00 1.310000e+01 -3.220000e+01
      vertex   -1.620000e+01 1.310000e+01 -3.220000e+01
      vertex   -1.200000e+00 9.000000e+00 -3.220000e+01
    endloop
  endfacet
  facet normal 0.000000e+00 0.000000e+00 1.000000e+00
    outer loop
      vertex   -1.200000e+00 9.000000e+00 -3.220000e+01
      vertex   -1.620000e+01 1.310000e+01 -3.220000e+01
      vertex   -1.620000e+01 9.000000e+00 -3.220000e+01
    endloop
  endfacet
  facet normal -1.000000e+00 -0.000000e+00 -0.000000e+00
    outer loop
      vertex   -1.620000e+01 1.310000e+01 -3.220000e+01
      vertex   -1.620000e+01 1.310000e+01 -3.620000e+01
      vertex   -1.620000e+01 9.000000e+00 -3.220000e+01
    endloop
  endfacet
  facet normal -1.000000e+00 0.000000e+00 0.000000e+00
    outer loop
      vertex   -1.620000e+01 9.000000e+00 -3.220000e+01
      vertex   -1.620000e+01 1.310000e+01 -3.620000e+01
      vertex   -1.620000e+01 9.000000e+00 -3.620000e+01
    endloop
  endfacet
  facet normal -9.914449e-01 0.000000e+00 -1.305262e-01
    outer loop
      vertex   -4.533067e+01 9.000000e+00 -3.396706e+01
      vertex   -4.533067e+01 1.310000e+01 -3.396706e+01
      vertex   -4.530000e+01 9.000000e+00 -3.420000e+01
    endloop
  endfacet
  facet normal -9.914449e-01 0.000000e+00 -1.305262e-01
    outer loop
      vertex   -4.530000e+01 9.000000e+00 -3.420000e+01
      vertex   -4.533067e+01 1.310000e+01 -3.396706e+01
      vertex   -4.530000e+01 1.310000e+01 -3.420000e+01
    endloop
  endfacet
  facet normal -9.914449e-01 0.000000e+00 1.305262e-01
    outer loop
      vertex   -4.530000e+01 9.000000e+00 -3.420000e+01
      vertex   -4.530000e+01 1.310000e+01 -3.420000e+01
      vertex   -4.533067e+01 9.000000e+00 -3.443294e+01
    endloop
  endfacet
  facet normal -9.914449e-01 0.000000e+00 1.305262e-01
    outer loop
      vertex   -4.533067e+01 9.000000e+00 -3.443294e+01
      vertex   -4.530000e+01 1.310000e+01 -3.420000e+01
      vertex   -4.533067e+01 1.310000e+01 -3.443294e+01
    endloop
  endfacet
  facet normal -9.238795e-01 0.000000e+00 3.826834e-01
    outer loop
      vertex   -4.533067e+01 9.000000e+00 -3.443294e+01
      vertex   -4.533067e+01 1.310000e+01 -3.443294e+01
      vertex   -4.542058e+01 9.000000e+00 -3.465000e+01
    endloop
  endfacet
  facet normal -9.238795e-01 0.000000e+00 3.826834e-01
    outer loop
      vertex   -4.542058e+01 9.000000e+00 -3.465000e+01
      vertex   -4.533067e+01 1.310000e+01 -3.443294e+01
      vertex   -4.542058e+01 1.310000e+01 -3.465000e+01
    endloop
  endfacet
  facet normal -7.933533e-01 0.000000e+00 6.087614e-01
    outer loop
      vertex   -4.542058e+01 9.000000e+00 -3.465000e+01
      vertex   -4.542058e+01 1.310000e+01 -3.465000e+01
      vertex   -4.556360e+01 9.000000e+00 -3.483640e+01
    endloop
  endfacet
  facet normal -7.933533e-01 0.000000e+00 6.087614e-01
    outer loop
      vertex   -4.556360e+01 9.000000e+00 -3.483640e+01
      vertex   -4.542058e+01 1.310000e+01 -3.465000e+01
      vertex   -4.556360e+01 1.310000e+01 -3.483640e+01
    endloop
  endfacet
  facet normal -6.087614e-01 0.000000e+00 7.933533e-01
    outer loop
      vertex   -4.556360e+01 9.000000e+00 -3.483640e+01
      vertex   -4.556360e+01 1.310000e+01 -3.483640e+01
      vertex   -4.575000e+01 9.000000e+00 -3.497942e+01
    endloop
  endfacet
  facet normal -6.087614e-01 0.000000e+00 7.933533e-01
    outer loop
      vertex   -4.575000e+01 9.000000e+00 -3.497942e+01
      vertex   -4.556360e+01 1.310000e+01 -3.483640e+01
      vertex   -4.575000e+01 1.310000e+01 -3.497942e+01
    endloop
  endfacet
  facet normal -3.826834e-01 0.000000e+00 9.238795e-01
    outer loop
      vertex   -4.575000e+01 9.000000e+00 -3.497942e+01
      vertex   -4.575000e+01 1.310000e+01 -3.497942e+01
      vertex   -4.596706e+01 9.000000e+00 -3.506933e+01
    endloop
  endfacet
  facet normal -3.826834e-01 0.000000e+00 9.238795e-01
    outer loop
      vertex   -4.596706e+01 9.000000e+00 -3.506933e+01
      vertex   -4.575000e+01 1.310000e+01 -3.497942e+01
      vertex   -4.596706e+01 1.310000e+01 -3.506933e+01
    endloop
  endfacet
  facet normal -1.305262e-01 0.000000e+00 9.914449e-01
    outer loop
      vertex   -4.596706e+01 9.000000e+00 -3.506933e+01
      vertex   -4.596706e+01 1.310000e+01 -3.506933e+01
      vertex   -4.620000e+01 9.000000e+00 -3.510000e+01
    endloop
  endfacet
  facet normal -1.305262e-01 0.000000e+00 9.914449e-01
    outer loop
      vertex   -4.620000e+01 9.000000e+00 -3.510000e+01
      vertex   -4.596706e+01 1.310000e+01 -3.506933e+01
      vertex   -4.620000e+01 1.310000e+01 -3.510000e+01
    endloop
  endfacet
  facet normal 1.305262e-01 -0.000000e+00 9.914449e-01
    outer loop
      vertex   -4.620000e+01 9.000000e+00 -3.510000e+01
      vertex   -4.620000e+01 1.310000e+01 -3.510000e+01
      vertex   -4.643294e+01 9.000000e+00 -3.506933e+01
    endloop
  endfacet
  facet normal 1.305262e-01 -0.000000e+00 9.914449e-01
    outer loop
      vertex   -4.643294e+01 9.000000e+00 -3.506933e+01
      vertex   -4.620000e+01 1.310000e+01 -3.510000e+01
      vertex   -4.643294e+01 1.310000e+01 -3.506933e+01
    endloop
  endfacet
  facet normal 3.826834e-01 -0.000000e+00 9.238795e-01
    outer loop
      vertex   -4.643294e+01 9.000000e+00 -3.506933e+01
      vertex   -4.643294e+01 1.310000e+01 -3.506933e+01
      vertex   -4.665000e+01 9.000000e+00 -3.497942e+01
    endloop
  endfacet
  facet normal 3.826834e-01 -0.000000e+00 9.238795e-01
    outer loop
      vertex   -4.665000e+01 9.000000e+00 -3.497942e+01
      vertex   -4.643294e+01 1.310000e+01 -3.506933e+01
      vertex   -4.665000e+01 1.310000e+01 -3.497942e+01
    endloop
  endfacet
  facet normal 6.087614e-01 -0.000000e+00 7.933533e-01
    outer loop
      vertex   -4.665000e+01 9.000000e+00 -3.497942e+01
      vertex   -4.665000e+01 1.310000e+01 -3.497942e+01
      vertex   -4.683640e+01 9.000000e+00 -3.483640e+01
    endloop
  endfacet
  facet normal 6.087614e-01 -0.000000e+00 7.933533e-01
    outer loop
      vertex   -4.683640e+01 9.000000e+00 -3.483640e+01
      vertex   -4.665000e+01 1.310000e+01 -3.497942e+01
      vertex   -4.683640e+01 1.310000e+01 -3.483640e+01
    endloop
  endfacet
  facet normal 7.933533e-01 -0.000000e+00 6.087614e-01
    outer loop
      vertex   -4.683640e+01 9.000000e+00 -3.483640e+01
      vertex   -4.683640e+01 1.310000e+01 -3.483640e+01
      vertex   -4.697942e+01 9.000000e+00 -3.465000e+01
    endloop
  endfacet
  facet normal 7.933533e-01 -0.000000e+00 6.087614e-01
    outer loop
      vertex   -4.697942e+01 9.000000e+00 -3.465000e+01
      vertex   -4.683640e+01 1.310000e+01 -3.483640e+01
      vertex   -4.697942e+01 1.310000e+01 -3.465000e+01
    endloop
  endfacet
  facet normal 9.238795e-01 -0.000000e+00 3.826834e-01
    outer loop
      vertex   -4.697942e+01 9.000000e+00 -3.465000e+01
      vertex   -4.697942e+01 1.310000e+01 -3.465000e+01
      vertex   -4.706933e+01 9.000000e+00 -3.443294e+01
    endloop
  endfacet
  facet normal 9.238795e-01 -0.000000e+00 3.826834e-01
    outer loop
      vertex   -4.706933e+01 9.000000e+00 -3.443294e+01
      vertex   -4.697942e+01 1.310000e+01 -3.465000e+01
      vertex   -4.706933e+01 1.310000e+01 -3.443294e+01
    endloop
  endfacet
  facet normal 9.914449e-01 -0.000000e+00 1.305262e-01
    outer loop
      vertex   -4.706933e+01 9.000000e+00 -3.443294e+01
      vertex   -4.706933e+01 1.310000e+01 -3.443294e+01
      vertex   -4.710000e+01 9.000000e+00 -3.420000e+01
    endloop
  endfacet
  facet normal 9.914449e-01 -0.000000e+00 1.305262e-01
    outer loop
      vertex   -4.710000e+01 9.000000e+00 -3.420000e+01
      vertex   -4.706933e+01 1.310000e+01 -3.443294e+01
      vertex   -4.710000e+01 1.310000e+01 -3.420000e+01
    endloop
  endfacet
  facet normal 9.914449e-01 0.000000e+00 -1.305262e-01
    outer loop
      vertex   -4.710000e+01 9.000000e+00 -3.420000e+01
      vertex   -4.710000e+01 1.310000e+01 -3.420000e+01
      vertex   -4.706933e+01 9.000000e+00 -3.396706e+01
    endloop
  endfacet
  facet normal 9.914449e-01 0.000000e+00 -1.305262e-01
    outer loop
      vertex   -4.706933e+01 9.000000e+00 -3.396706e+01
      vertex   -4.710000e+01 1.310000e+01 -3.420000e+01
      vertex   -4.706933e+01 1.310000e+01 -3.396706e+01
    endloop
  endfacet
  facet normal 9.238795e-01 0.000000e+00 -3.826834e-01
    outer loop
      vertex   -4.706933e+01 9.000000e+00 -3.396706e+01
      vertex   -4.706933e+01 1.310000e+01 -3.396706e+01
      vertex   -4.697942e+01 9.000000e+00 -3.375000e+01
    endloop
  endfacet
  facet normal 9.238795e-01 0.000000e+00 -3.826834e-01
    outer loop
      vertex   -4.697942e+01 9.000000e+00 -3.375000e+01
      vertex   -4.706933e+01 1.310000e+01 -3.396706e+01
      vertex   -4.697942e+01 1.310000e+01 -3.375000e+01
    endloop
  endfacet
  facet normal 7.933533e-01 0.000000e+00 -6.087614e-01
    outer loop
      vertex   -4.697942e+01 9.000000e+00 -3.375000e+01
      vertex   -4.697942e+01 1.310000e+01 -3.375000e+01
      vertex   -4.683640e+01 9.000000e+00 -3.356360e+01
    endloop
  endfacet
  facet normal 7.933533e-01 0.000000e+00 -6.087614e-01
    outer loop
      vertex   -4.683640e+01 9.000000e+00 -3.356360e+01
      vertex   -4.697942e+01 1.310000e+01 -3.375000e+01
      vertex   -4.683640e+01 1.310000e+01 -3.356360e+01
    endloop
  endfacet
  facet normal 6.087614e-01 0.000000e+00 -7.933533e-01
    outer loop
      vertex   -4.683640e+01 9.000000e+00 -3.356360e+01
      vertex   -4.683640e+01 1.310000e+01 -3.356360e+01
      vertex   -4.665000e+01 9.000000e+00 -3.342058e+01
    endloop
  endfacet
  facet normal 6.087614e-01 0.000000e+00 -7.933533e-01
    outer loop
      vertex   -4.665000e+01 9.000000e+00 -3.342058e+01
      vertex   -4.683640e+01 1.310000e+01 -3.356360e+01
      vertex   -4.665000e+01 1.310000e+01 -3.342058e+01
    endloop
  endfacet
  facet normal 3.826834e-01 0.000000e+00 -9.238795e-01
    outer loop
      vertex   -4.665000e+01 9.000000e+00 -3.342058e+01
      vertex   -4.665000e+01 1.310000e+01 -3.342058e+01
      vertex   -4.643294e+01 9.000000e+00 -3.333067e+01
    endloop
  endfacet
  facet normal 3.826834e-01 0.000000e+00 -9.238795e-01
    outer loop
      vertex   -4.643294e+01 9.000000e+00 -3.333067e+01
      vertex   -4.665000e+01 1.310000e+01 -3.342058e+01
      vertex   -4.643294e+01 1.310000e+01 -3.333067e+01
    endloop
  endfacet
  facet normal 1.305262e-01 0.000000e+00 -9.914449e-01
    outer loop
      vertex   -4.643294e+01 9.000000e+00 -3.333067e+01
      vertex   -4.643294e+01 1.310000e+01 -3.333067e+01
      vertex   -4.620000e+01 9.000000e+00 -3.330000e+01
    endloop
  endfacet
  facet normal 1.305262e-01 0.000000e+00 -9.914449e-01
    outer loop
      vertex   -4.620000e+01 9.000000e+00 -3.330000e+01
      vertex   -4.643294e+01 1.310000e+01 -3.333067e+01
      vertex   -4.620000e+01 1.310000e+01 -3.330000e+01
    endloop
  endfacet
  facet normal -1.305262e-01 0.000000e+00 -9.914449e-01
    outer loop
      vertex   -4.620000e+01 9.000000e+00 -3.330000e+01
      vertex   -4.620000e+01 1.310000e+01 -3.330000e+01
      vertex   -4.596706e+01 9.000000e+00 -3.333067e+01
    endloop
  endfacet
  facet normal -1.305262e-01 0.000000e+00 -9.914449e-01
    outer loop
      vertex   -4.596706e+01 9.000000e+00 -3.333067e+01
      vertex   -4.620000e+01 1.310000e+01 -3.330000e+01
      vertex   -4.596706e+01 1.310000e+01 -3.333067e+01
    endloop
  endfacet
  facet normal -3.826834e-01 0.000000e+00 -9.238795e-01
    outer loop
      vertex   -4.596706e+01 9.000000e+00 -3.333067e+01
      vertex   -4.596706e+01 1.310000e+01 -3.333067e+01
      vertex   -4.575000e+01 9.000000e+00 -3.342058e+01
    endloop
  endfacet
  facet normal -3.826834e-01 0.000000e+00 -9.238795e-01
    outer loop
      vertex   -4.575000e+01 9.000000e+00 -3.342058e+01
      vertex   -4.596706e+01 1.310000e+01 -3.333067e+01
      vertex   -4.575000e+01 1.310000e+01 -3.342058e+01
    endloop
  endfacet
  facet normal -6.087614e-01 0.000000e+00 -7.933533e-01
    outer loop
      vertex   -4.575000e+01 9.000000e+00 -3.342058e+01
      vertex   -4.575000e+01 1.310000e+01 -3.342058e+01
      vertex   -4.556360e+01 9.000000e+00 -3.356360e+01
    endloop
  endfacet
  facet normal -6.087614e-01 0.000000e+00 -7.933533e-01
    outer loop
      vertex   -4.556360e+01 9.000000e+00 -3.356360e+01
      vertex   -4.575000e+01 1.310000e+01 -3.342058e+01
      vertex   -4.556360e+01 1.310000e+01 -3.356360e+01
    endloop
  endfacet
  facet normal -7.933533e-01 0.000000e+00 -6.087614e-01
    outer loop
      vertex   -4.556360e+01 9.000000e+00 -3.356360e+01
      vertex   -4.556360e+01 1.310000e+01 -3.356360e+01
      vertex   -4.542058e+01 9.000000e+00 -3.375000e+01
    endloop
  endfacet
  facet normal -7.933533e-01 0.000000e+00 -6.087614e-01
    outer loop
      vertex   -4.542058e+01 9.000000e+00 -3.375000e+01
      vertex   -4.556360e+01 1.310000e+01 -3.356360e+01
      vertex   -4.542058e+01 1.310000e+01 -3.375000e+01
    endloop
  endfacet
  facet normal -9.238795e-01 0.000000e+00 -3.826834e-01
    outer loop
      vertex   -4.542058e+01 9.000000e+00 -3.375000e+01
      vertex   -4.542058e+01 1.310000e+01 -3.375000e+01
      vertex   -4.533067e+01 9.000000e+00 -3.396706e+01
    endloop
  endfacet
  facet normal -9.238795e-01 0.000000e+00 -3.826834e-01
    outer loop
      vertex   -4.533067e+01 9.000000e+00 -3.396706e+01
      vertex   -4.542058e+01 1.310000e+01 -3.375000e+01
      vertex   -4.533067e+01 1.310000e+01 -3.396706e+01
    endloop
  endfacet
  facet normal -9.914449e-01 0.000000e+00 -1.305262e-01
    outer loop
      vertex   -5.330667e+00 9.000000e+00 -3.396706e+01
      vertex   -5.330667e+00 1.310000e+01 -3.396706e+01
      vertex   -5.300000e+00 9.000000e+00 -3.420000e+01
    endloop
  endfacet
  facet normal -9.914449e-01 0.000000e+00 -1.305262e-01
    outer loop
      vertex   -5.300000e+00 9.000000e+00 -3.420000e+01
      vertex   -5.330667e+00 1.310000e+01 -3.396706e+01
      vertex   -5.300000e+00 1.310000e+01 -3.420000e+01
    endloop
  endfacet
  facet normal -9.914449e-01 0.000000e+00 1.305262e-01
    outer loop
      vertex   -5.300000e+00 9.000000e+00 -3.420000e+01
      vertex   -5.300000e+00 1.310000e+01 -3.420000e+01
      vertex   -5.330667e+00 9.000000e+00 -3.443294e+01
    endloop
  endfacet
  facet normal -9.914449e-01 0.000000e+00 1.305262e-01
    outer loop
      vertex   -5.330667e+00 9.000000e+00 -3.443294e+01
      vertex   -5.300000e+00 1.310000e+01 -3.420000e+01
      vertex   -5.330667e+00 1.310000e+01 -3.443294e+01
    endloop
  endfacet
  facet normal -9.238795e-01 0.000000e+00 3.826834e-01
    outer loop
      vertex   -5.330667e+00 9.000000e+00 -3.443294e+01
      vertex   -5.330667e+00 1.310000e+01 -3.443294e+01
      vertex   -5.420577e+00 9.000000e+00 -3.465000e+01
    endloop
  endfacet
  facet normal -9.238795e-01 0.000000e+00 3.826834e-01
    outer loop
      vertex   -5.420577e+00 9.000000e+00 -3.465000e+01
      vertex   -5.330667e+00 1.310000e+01 -3.443294e+01
      vertex   -5.420577e+00 1.310000e+01 -3.465000e+01
    endloop
  endfacet
  facet normal -7.933533e-01 0.000000e+00 6.087614e-01
    outer loop
      vertex   -5.420577e+00 9.000000e+00 -3.465000e+01
      vertex   -5.420577e+00 1.310000e+01 -3.465000e+01
      vertex   -5.563604e+00 9.000000e+00 -3.483640e+01
    endloop
  endfacet
  facet normal -7.933533e-01 0.000000e+00 6.087614e-01
    outer loop
      vertex   -5.563604e+00 9.000000e+00 -3.483640e+01
      vertex   -5.420577e+00 1.310000e+01 -3.465000e+01
      vertex   -5.563604e+00 1.310000e+01 -3.483640e+01
    endloop
  endfacet
  facet normal -6.087614e-01 0.000000e+00 7.933533e-01
    outer loop
      vertex   -5.563604e+00 9.000000e+00 -3.483640e+01
      vertex   -5.563604e+00 1.310000e+01 -3.483640e+01
      vertex   -5.750000e+00 9.000000e+00 -3.497942e+01
    endloop
  endfacet
  facet normal -6.087614e-01 0.000000e+00 7.933533e-01
    outer loop
      vertex   -5.750000e+00 9.000000e+00 -3.497942e+01
      vertex   -5.563604e+00 1.310000e+01 -3.483640e+01
      vertex   -5.750000e+00 1.310000e+01 -3.497942e+01
    endloop
  endfacet
  facet normal -3.826834e-01 0.000000e+00 9.238795e-01
    outer loop
      vertex   -5.750000e+00 9.000000e+00 -3.497942e+01
      vertex   -5.750000e+00 1.310000e+01 -3.497942e+01
      vertex   -5.967063e+00 9.000000e+00 -3.506933e+01
    endloop
  endfacet
  facet normal -3.826834e-01 0.000000e+00 9.238795e-01
    outer loop
      vertex   -5.967063e+00 9.000000e+00 -3.506933e+01
      vertex   -5.750000e+00 1.310000e+01 -3.497942e+01
      vertex   -5.967063e+00 1.310000e+01 -3.506933e+01
    endloop
  endfacet
  facet normal -1.305262e-01 0.000000e+00 9.914449e-01
    outer loop
      vertex   -5.967063e+00 9.000000e+00 -3.506933e+01
      vertex   -5.967063e+00 1.310000e+01 -3.506933e+01
      vertex   -6.200000e+00 9.000000e+00 -3.510000e+01
    endloop
  endfacet
  facet normal -1.305262e-01 0.000000e+00 9.914449e-01
    outer loop
      vertex   -6.200000e+00 9.000000e+00 -3.510000e+01
      vertex   -5.967063e+00 1.310000e+01 -3.506933e+01
      vertex   -6.200000e+00 1.310000e+01 -3.510000e+01
    endloop
  endfacet
  facet normal 1.305262e-01 -0.000000e+00 9.914449e-01
    outer loop
      vertex   -6.200000e+00 9.000000e+00 -3.510000e+01
      vertex   -6.200000e+00 1.310000e+01 -3.510000e+01
      vertex   -6.432937e+00 9.000000e+00 -3.506933e+01
    endloop
  endfacet
  facet normal 1.305262e-01 -0.000000e+00 9.914449e-01
    outer loop
      vertex   -6.432937e+00 9.000000e+00 -3.506933e+01
      vertex   -6.200000e+00 1.310000e+01 -3.510000e+01
      vertex   -6.432937e+00 1.310000e+01 -3.506933e+01
    endloop
  endfacet
  facet normal 3.826834e-01 -0.000000e+00 9.238795e-01
    outer loop
      vertex   -6.432937e+00 9.000000e+00 -3.506933e+01
      vertex   -6.432937e+00 1.310000e+01 -3.506933e+01
      vertex   -6.650000e+00 9.000000e+00 -3.497942e+01
    endloop
  endfacet
  facet normal 3.826834e-01 -0.000000e+00 9.238795e-01
    outer loop
      vertex   -6.650000e+00 9.000000e+00 -3.497942e+01
      vertex   -6.432937e+00 1.310000e+01 -3.506933e+01
      vertex   -6.650000e+00 1.310000e+01 -3.497942e+01
    endloop
  endfacet
  facet normal 6.087614e-01 -0.000000e+00 7.933533e-01
    outer loop
      vertex   -6.650000e+00 9.000000e+00 -3.497942e+01
      vertex   -6.650000e+00 1.310000e+01 -3.497942e+01
      vertex   -6.836396e+00 9.000000e+00 -3.483640e+01
    endloop
  endfacet
  facet normal 6.087614e-01 -0.000000e+00 7.933533e-01
    outer loop
      vertex   -6.836396e+00 9.000000e+00 -3.483640e+01
      vertex   -6.650000e+00 1.310000e+01 -3.497942e+01
      vertex   -6.836396e+00 1.310000e+01 -3.483640e+01
    endloop
  endfacet
  facet normal 7.933533e-01 -0.000000e+00 6.087614e-01
    outer loop
      vertex   -6.836396e+00 9.000000e+00 -3.483640e+01
      vertex   -6.836396e+00 1.310000e+01 -3.483640e+01
      vertex   -6.979423e+00 9.000000e+00 -3.465000e+01
    endloop
  endfacet
  facet normal 7.933533e-01 -0.000000e+00 6.087614e-01
    outer loop
      vertex   -6.979423e+00 9.000000e+00 -3.465000e+01
      vertex   -6.836396e+00 1.310000e+01 -3.483640e+01
      vertex   -6.979423e+00 1.310000e+01 -3.465000e+01
    endloop
  endfacet
  facet normal 9.238795e-01 -0.000000e+00 3.826834e-01
    outer loop
      vertex   -6.979423e+00 9.000000e+00 -3.465000e+01
      vertex   -6.979423e+00 1.310000e+01 -3.465000e+01
      vertex   -7.069333e+00 9.000000e+00 -3.443294e+01
    endloop
  endfacet
  facet normal 9.238795e-01 -0.000000e+00 3.826834e-01
    outer loop
      vertex   -7.069333e+00 9.000000e+00 -3.443294e+01
      vertex   -6.979423e+00 1.310000e+01 -3.465000e+01
      vertex   -7.069333e+00 1.310000e+01 -3.443294e+01
    endloop
  endfacet
  facet normal 9.914449e-01 -0.000000e+00 1.305262e-01
    outer loop
      vertex   -7.069333e+00 9.000000e+00 -3.443294e+01
      vertex   -7.069333e+00 1.310000e+01 -3.443294e+01
      vertex   -7.100000e+00 9.000000e+00 -3.420000e+01
    endloop
  endfacet
  facet normal 9.914449e-01 -0.000000e+00 1.305262e-01
    outer loop
      vertex   -7.100000e+00 9.000000e+00 -3.420000e+01
      vertex   -7.069333e+00 1.310000e+01 -3.443294e+01
      vertex   -7.100000e+00 1.310000e+01 -3.420000e+01
    endloop
  endfacet
  facet normal 9.914449e-01 0.000000e+00 -1.305262e-01
    outer loop
      vertex   -7.100000e+00 9.000000e+00 -3.420000e+01
      vertex   -7.100000e+00 1.310000e+01 -3.420000e+01
      vertex   -7.069333e+00 9.000000e+00 -3.396706e+01
    endloop
  endfacet
  facet normal 9.914449e-01 0.000000e+00 -1.305262e-01
    outer loop
      vertex   -7.069333e+00 9.000000e+00 -3.396706e+01
      vertex   -7.100000e+00 1.310000e+01 -3.420000e+01
      vertex   -7.069333e+00 1.310000e+01 -3.396706e+01
    endloop
  endfacet
  facet normal 9.238795e-01 0.000000e+00 -3.826834e-01
    outer loop
      vertex   -7.069333e+00 9.000000e+00 -3.396706e+01
      vertex   -7.069333e+00 1.310000e+01 -3.396706e+01
      vertex   -6.979423e+00 9.000000e+00 -3.375000e+01
    endloop
  endfacet
  facet normal 9.238795e-01 0.000000e+00 -3.826834e-01
    outer loop
      vertex   -6.979423e+00 9.000000e+00 -3.375000e+01
      vertex   -7.069333e+00 1.310000e+01 -3.396706e+01
      vertex   -6.979423e+00 1.310000e+01 -3.375000e+01
    endloop
  endfacet
  facet normal 7.933533e-01 0.000000e+00 -6.087614e-01
    outer loop
      vertex   -6.979423e+00 9.000000e+00 -3.375000e+01
      vertex   -6.979423e+00 1.310000e+01 -3.375000e+01
      vertex   -6.836396e+00 9.000000e+00 -3.356360e+01
    endloop
  endfacet
  facet normal 7.933533e-01 0.000000e+00 -6.087614e-01
    outer loop
      vertex   -6.836396e+00 9.000000e+00 -3.356360e+01
      vertex   -6.979423e+00 1.310000e+01 -3.375000e+01
      vertex   -6.836396e+00 1.310000e+01 -3.356360e+01
    endloop
  endfacet
  facet normal 6.087614e-01 0.000000e+00 -7.933533e-01
    outer loop
      vertex   -6.836396e+00 9.000000e+00 -3.356360e+01
      vertex   -6.836396e+00 1.310000e+01 -3.356360e+01
      vertex   -6.650000e+00 9.000000e+00 -3.342058e+01
    endloop
  endfacet
  facet normal 6.087614e-01 0.000000e+00 -7.933533e-01
    outer loop
      vertex   -6.650000e+00 9.000000e+00 -3.342058e+01
      vertex   -6.836396e+00 1.310000e+01 -3.356360e+01
      vertex   -6.650000e+00 1.310000e+01 -3.342058e+01
    endloop
  endfacet
  facet normal 3.826834e-01 0.000000e+00 -9.238795e-01
    outer loop
      vertex   -6.650000e+00 9.000000e+00 -3.342058e+01
      vertex   -6.650000e+00 1.310000e+01 -3.342058e+01
      vertex   -6.432937e+00 9.000000e+00 -3.333067e+01
    endloop
  endfacet
  facet normal 3.826834e-01 0.000000e+00 -9.238795e-01
    outer loop
      vertex   -6.432937e+00 9.000000e+00 -3.333067e+01
      vertex   -6.650000e+00 1.310000e+01 -3.342058e+01
      vertex   -6.432937e+00 1.310000e+01 -3.333067e+01
    endloop
  endfacet
  facet normal 1.305262e-01 0.000000e+00 -9.914449e-01
    outer loop
      vertex   -6.432937e+00 9.000000e+00 -3.333067e+01
      vertex   -6.432937e+00 1.310000e+01 -3.333067e+01
      vertex   -6.200000e+00 9.000000e+00 -3.330000e+01
    endloop
  endfacet
  facet normal 1.305262e-01 0.000000e+00 -9.914449e-01
    outer loop
      vertex   -6.200000e+00 9.000000e+00 -3.330000e+01
      vertex   -6.432937e+00 1.310000e+01 -3.333067e+01
      vertex   -6.200000e+00 1.310000e+01 -3.330000e+01
    endloop
  endfacet
  facet normal -1.305262e-01 0.000000e+00 -9.914449e-01
    outer loop
      vertex   -6.200000e+00 9.000000e+00 -3.330000e+01
      vertex   -6.200000e+00 1.310000e+01 -3.330000e+01
      vertex   -5.967063e+00 9.000000e+00 -3.333067e+01
    endloop
  endfacet
  facet normal -1.305262e-01 0.000000e+00 -9.914449e-01
    outer loop
      vertex   -5.967063e+00 9.000000e+00 -3.333067e+01
      vertex   -6.200000e+00 1.310000e+01 -3.330000e+01
      vertex   -5.967063e+00 1.310000e+01 -3.333067e+01
    endloop
  endfacet
  facet normal -3.826834e-01 0.000000e+00 -9.238795e-01
    outer loop
      vertex   -5.967063e+00 9.000000e+00 -3.333067e+01
      vertex   -5.967063e+00 1.310000e+01 -3.333067e+01
      vertex   -5.750000e+00 9.000000e+00 -3.342058e+01
    endloop
  endfacet
  facet normal -3.826834e-01 0.000000e+00 -9.238795e-01
    outer loop
      vertex   -5.750000e+00 9.000000e+00 -3.342058e+01
      vertex   -5.967063e+00 1.310000e+01 -3.333067e+01
      vertex   -5.750000e+00 1.310000e+01 -3.342058e+01
    endloop
  endfacet
  facet normal -6.087614e-01 0.000000e+00 -7.933533e-01
    outer loop
      vertex   -5.750000e+00 9.000000e+00 -3.342058e+01
      vertex   -5.750000e+00 1.310000e+01 -3.342058e+01
      vertex   -5.563604e+00 9.000000e+00 -3.356360e+01
    endloop
  endfacet
  facet normal -6.087614e-01 0.000000e+00 -7.933533e-01
    outer loop
      vertex   -5.563604e+00 9.000000e+00 -3.356360e+01
      vertex   -5.750000e+00 1.310000e+01 -3.342058e+01
      vertex   -5.563604e+00 1.310000e+01 -3.356360e+01
    endloop
  endfacet
  facet normal -7.933533e-01 0.000000e+00 -6.087614e-01
    outer loop
      vertex   -5.563604e+00 9.000000e+00 -3.356360e+01
      vertex   -5.563604e+00 1.310000e+01 -3.356360e+01
      vertex   -5.420577e+00 9.000000e+00 -3.375000e+01
    endloop
  endfacet
  facet normal -7.933533e-01 0.000000e+00 -6.087614e-01
    outer loop
      vertex   -5.420577e+00 9.000000e+00 -3.375000e+01
      vertex   -5.563604e+00 1.310000e+01 -3.356360e+01
      vertex   -5.420577e+00 1.310000e+01 -3.375000e+01
    endloop
  endfacet
  facet normal -9.238795e-01 0.000000e+00 -3.826834e-01
    outer loop
      vertex   -5.420577e+00 9.000000e+00 -3.375000e+01
      vertex   -5.420577e+00 1.310000e+01 -3.375000e+01
      vertex   -5.330667e+00 9.000000e+00 -3.396706e+01
    endloop
  endfacet
  facet normal -9.238795e-01 0.000000e+00 -3.826834e-01
    outer loop
      vertex   -5.330667e+00 9.000000e+00 -3.396706e+01
      vertex   -5.420577e+00 1.310000e+01 -3.375000e+01
      vertex   -5.330667e+00 1.310000e+01 -3.396706e+01
    endloop
  endfacet
  facet normal -1.000000e+00 0.000000e+00 4.625929e-17
    outer loop
      vertex   -1.200000e+00 1.310000e+01 -3.620000e+01
      vertex   -1.200000e+00 1.310000e+01 -4.580000e+01
      vertex   -1.200000e+00 9.000000e+00 -3.620000e+01
    endloop
  endfacet
  facet normal -1.000000e+00 0.000000e+00 4.625929e-17
    outer loop
      vertex   -1.200000e+00 9.000000e+00 -3.620000e+01
      vertex   -1.200000e+00 1.310000e+01 -4.580000e+01
      vertex   -1.200000e+00 9.000000e+00 -4.580000e+01
    endloop
  endfacet
  facet normal 0.000000e+00 0.000000e+00 1.000000e+00
    outer loop
      vertex   -1.200000e+00 1.310000e+01 -4.580000e+01
      vertex   -5.380000e+01 1.310000e+01 -4.580000e+01
      vertex   -1.200000e+00 9.000000e+00 -4.580000e+01
    endloop
  endfacet
  facet normal 0.000000e+00 0.000000e+00 1.000000e+00
    outer loop
      vertex   -1.200000e+00 9.000000e+00 -4.580000e+01
      vertex   -5.380000e+01 1.310000e+01 -4.580000e+01
      vertex   -5.380000e+01 9.000000e+00 -4.580000e+01
    endloop
  endfacet
  facet normal 1.000000e+00 0.000000e+00 -0.000000e+00
    outer loop
      vertex   -5.380000e+01 1.310000e+01 -4.580000e+01
      vertex   -5.380000e+01 1.310000e+01 -3.620000e+01
      vertex   -5.380000e+01 9.000000e+00 -4.580000e+01
    endloop
  endfacet
  facet normal 1.000000e+00 0.000000e+00 0.000000e+00
    outer loop
      vertex   -5.380000e+01 9.000000e+00 -4.580000e+01
      vertex   -5.380000e+01 1.310000e+01 -3.620000e+01
      vertex   -5.380000e+01 9.000000e+00 -3.620000e+01
    endloop
  endfacet
  facet normal -4.037175e-16 -0.000000e+00 -1.000000e+00
    outer loop
      vertex   -5.380000e+01 1.310000e+01 -3.620000e+01
      vertex   -3.620000e+01 1.310000e+01 -3.620000e+01
      vertex   -5.380000e+01 9.000000e+00 -3.620000e+01
    endloop
  endfacet
  facet normal -4.037175e-16 0.000000e+00 -1.000000e+00
    outer loop
      vertex   -5.380000e+01 9.000000e+00 -3.620000e+01
      vertex   -3.620000e+01 1.310000e+01 -3.620000e+01
      vertex   -3.620000e+01 9.000000e+00 -3.620000e+01
    endloop
  endfacet
  facet normal 1.000000e+00 0.000000e+00 -0.000000e+00
    outer loop
      vertex   -3.620000e+01 1.310000e+01 -3.620000e+01
      vertex   -3.620000e+01 1.310000e+01 -3.220000e+01
      vertex   -3.620000e+01 9.000000e+00 -3.620000e+01
    endloop
  endfacet
  facet normal 1.000000e+00 0.000000e+00 0.000000e+00
    outer loop
      vertex   -3.620000e+01 9.000000e+00 -3.620000e+01
      vertex   -3.620000e+01 1.310000e+01 -3.220000e+01
      vertex   -3.620000e+01 9.000000e+00 -3.220000e+01
    endloop
  endfacet
  facet normal 4.037175e-16 0.000000e+00 1.000000e+00
    outer loop
      vertex   -3.620000e+01 1.310000e+01 -3.220000e+01
      vertex   -5.380000e+01 1.310000e+01 -3.220000e+01
      vertex   -3.620000e+01 9.000000e+00 -3.220000e+01
    endloop
  endfacet
  facet normal 4.037175e-16 0.000000e+00 1.000000e+00
    outer loop
      vertex   -3.620000e+01 9.000000e+00 -3.220000e+01
      vertex   -5.380000e+01 1.310000e+01 -3.220000e+01
      vertex   -5.380000e+01 9.000000e+00 -3.220000e+01
    endloop
  endfacet
  facet normal 1.000000e+00 0.000000e+00 6.459479e-16
    outer loop
      vertex   -5.380000e+01 1.310000e+01 -3.220000e+01
      vertex   -5.380000e+01 1.310000e+01 -2.120000e+01
      vertex   -5.380000e+01 9.000000e+00 -3.220000e+01
    endloop
  endfacet
  facet normal 1.000000e+00 0.000000e+00 6.459479e-16
    outer loop
      vertex   -5.380000e+01 9.000000e+00 -3.220000e+01
      vertex   -5.380000e+01 1.310000e+01 -2.120000e+01
      vertex   -5.380000e+01 9.000000e+00 -2.120000e+01
    endloop
  endfacet
  facet normal -1.000000e+00 -0.000000e+00 -0.000000e+00
    outer loop
      vertex   -5.500000e+01 1.410000e+01 -2.000000e+01
      vertex   -5.500000e+01 1.410000e+01 -4.700000e+01
      vertex   -5.500000e+01 9.000000e+00 -2.000000e+01
    endloop
  endfacet
  facet normal -1.000000e+00 0.000000e+00 0.000000e+00
    outer loop
      vertex   -5.500000e+01 9.000000e+00 -2.000000e+01
      vertex   -5.500000e+01 1.410000e+01 -4.700000e+01
      vertex   -5.500000e+01 9.000000e+00 -4.700000e+01
    endloop
  endfacet
  facet normal 0.000000e+00 0.000000e+00 -1.000000e+00
    outer loop
      vertex   -5.500000e+01 1.410000e+01 -4.700000e+01
      vertex   0.000000e+00 1.410000e+01 -4.700000e+01
      vertex   -5.500000e+01 9.000000e+00 -4.700000e+01
    endloop
  endfacet
  facet normal 0.000000e+00 0.000000e+00 -1.000000e+00
    outer loop
      vertex   -5.500000e+01 9.000000e+00 -4.700000e+01
      vertex   0.000000e+00 1.410000e+01 -4.700000e+01
      vertex   0.000000e+00 9.000000e+00 -4.700000e+01
    endloop
  endfacet
  facet normal 1.000000e+00 0.000000e+00 -0.000000e+00
    outer loop
      vertex   0.000000e+00 1.410000e+01 -4.700000e+01
      vertex   0.000000e+00 1.410000e+01 -2.000000e+01
      vertex   0.000000e+00 9.000000e+00 -4.700000e+01
    endloop
  endfacet
  facet normal 1.000000e+00 0.000000e+00 0.000000e+00
    outer loop
      vertex   0.000000e+00 9.000000e+00 -4.700000e+01
      vertex   0.000000e+00 1.410000e+01 -2.000000e+01
      vertex   0.000000e+00 9.000000e+00 -2.000000e+01
    endloop
  endfacet
  facet normal 0.000000e+00 0.000000e+00 -1.000000e+00
    outer loop
      vertex   -1.620000e+01 1.310000e+01 -3.620000e+01
      vertex   -1.200000e+00 1.310000e+01 -3.620000e+01
      vertex   -1.620000e+01 9.000000e+00 -3.620000e+01
    endloop
  endfacet
  facet normal 0.000000e+00 0.000000e+00 -1.000000e+00
    outer loop
      vertex   -1.620000e+01 9.000000e+00 -3.620000e+01
      vertex   -1.200000e+00 1.310000e+01 -3.620000e+01
      vertex   -1.200000e+00 9.000000e+00 -3.620000e+01
    endloop
  endfacet
  facet normal 0.000000e+00 -1.000000e+00 0.000000e+00
    outer loop
      vertex   -4.533067e+01 9.000000e+00 -3.443294e+01
      vertex   -3.620000e+01 9.000000e+00 -3.620000e+01
      vertex   -4.530000e+01 9.000000e+00 -3.420000e+01
    endloop
  endfacet
  facet normal 0.000000e+00 -1.000000e+00 0.000000e+00
    outer loop
      vertex   -4.530000e+01 9.000000e+00 -3.420000e+01
      vertex   -3.620000e+01 9.000000e+00 -3.620000e+01
      vertex   -3.620000e+01 9.000000e+00 -3.220000e+01
    endloop
  endfacet
  facet normal 0.000000e+00 -1.000000e+00 0.000000e+00
    outer loop
      vertex   -4.530000e+01 9.000000e+00 -3.420000e+01
      vertex   -3.620000e+01 9.000000e+00 -3.220000e+01
      vertex   -4.533067e+01 9.000000e+00 -3.396706e+01
    endloop
  endfacet
  facet normal 0.000000e+00 -1.000000e+00 0.000000e+00
    outer loop
      vertex   -4.533067e+01 9.000000e+00 -3.396706e+01
      vertex   -3.620000e+01 9.000000e+00 -3.220000e+01
      vertex   -4.542058e+01 9.000000e+00 -3.375000e+01
    endloop
  endfacet
  facet normal 0.000000e+00 -1.000000e+00 0.000000e+00
    outer loop
      vertex   -4.542058e+01 9.000000e+00 -3.375000e+01
      vertex   -3.620000e+01 9.000000e+00 -3.220000e+01
      vertex   -4.556360e+01 9.000000e+00 -3.356360e+01
    endloop
  endfacet
  facet normal 0.000000e+00 -1.000000e+00 0.000000e+00
    outer loop
      vertex   -4.556360e+01 9.000000e+00 -3.356360e+01
      vertex   -3.620000e+01 9.000000e+00 -3.220000e+01
      vertex   -4.575000e+01 9.000000e+00 -3.342058e+01
    endloop
  endfacet
  facet normal 0.000000e+00 -1.000000e+00 0.000000e+00
    outer loop
      vertex   -4.575000e+01 9.000000e+00 -3.342058e+01
      vertex   -3.620000e+01 9.000000e+00 -3.220000e+01
      vertex   -4.596706e+01 9.000000e+00 -3.333067e+01
    endloop
  endfacet
  facet normal 0.000000e+00 -1.000000e+00 0.000000e+00
    outer loop
      vertex   -4.596706e+01 9.000000e+00 -3.333067e+01
      vertex   -3.620000e+01 9.000000e+00 -3.220000e+01
      vertex   -4.620000e+01 9.000000e+00 -3.330000e+01
    endloop
  endfacet
  facet normal 0.000000e+00 -1.000000e+00 0.000000e+00
    outer loop
      vertex   -4.620000e+01 9.000000e+00 -3.330000e+01
      vertex   -3.620000e+01 9.000000e+00 -3.220000e+01
      vertex   -5.380000e+01 9.000000e+00 -3.220000e+01
    endloop
  endfacet
  facet normal -0.000000e+00 -1.000000e+00 0.000000e+00
    outer loop
      vertex   -4.620000e+01 9.000000e+00 -3.330000e+01
      vertex   -5.380000e+01 9.000000e+00 -3.220000e+01
      vertex   -4.643294e+01 9.000000e+00 -3.333067e+01
    endloop
  endfacet
  facet normal -0.000000e+00 -1.000000e+00 0.000000e+00
    outer loop
      vertex   -4.643294e+01 9.000000e+00 -3.333067e+01
      vertex   -5.380000e+01 9.000000e+00 -3.220000e+01
      vertex   -4.665000e+01 9.000000e+00 -3.342058e+01
    endloop
  endfacet
  facet normal -0.000000e+00 -1.000000e+00 0.000000e+00
    outer loop
      vertex   -4.665000e+01 9.000000e+00 -3.342058e+01
      vertex   -5.380000e+01 9.000000e+00 -3.220000e+01
      vertex   -4.683640e+01 9.000000e+00 -3.356360e+01
    endloop
  endfacet
  facet normal -0.000000e+00 -1.000000e+00 0.000000e+00
    outer loop
      vertex   -4.683640e+01 9.000000e+00 -3.356360e+01
      vertex   -5.380000e+01 9.000000e+00 -3.220000e+01
      vertex   -4.697942e+01 9.000000e+00 -3.375000e+01
    endloop
  endfacet
  facet normal -0.000000e+00 -1.000000e+00 0.000000e+00
    outer loop
      vertex   -4.697942e+01 9.000000e+00 -3.375000e+01
      vertex   -5.380000e+01 9.000000e+00 -3.220000e+01
      vertex   -4.706933e+01 9.000000e+00 -3.396706e+01
    endloop
  endfacet
  facet normal -0.000000e+00 -1.000000e+00 0.000000e+00
    outer loop
      vertex   -4.706933e+01 9.000000e+00 -3.396706e+01
      vertex   -5.380000e+01 9.000000e+00 -3.220000e+01
      vertex   -4.710000e+01 9.000000e+00 -3.420000e+01
    endloop
  endfacet
  facet normal -0.000000e+00 -1.000000e+00 0.000000e+00
    outer loop
      vertex   -4.710000e+01 9.000000e+00 -3.420000e+01
      vertex   -5.380000e+01 9.000000e+00 -3.220000e+01
      vertex   -5.380000e+01 9.000000e+00 -3.620000e+01
    endloop
  endfacet
  facet normal 0.000000e+00 -1.000000e+00 -0.000000e+00
    outer loop
      vertex   -4.710000e+01 9.000000e+00 -3.420000e+01
      vertex   -5.380000e+01 9.000000e+00 -3.620000e+01
      vertex   -4.706933e+01 9.000000e+00 -3.443294e+01
    endloop
  endfacet
  facet normal 0.000000e+00 -1.000000e+00 -0.000000e+00
    outer loop
      vertex   -4.706933e+01 9.000000e+00 -3.443294e+01
      vertex   -5.380000e+01 9.000000e+00 -3.620000e+01
      vertex   -4.697942e+01 9.000000e+00 -3.465000e+01
    endloop
  endfacet
  facet normal 0.000000e+00 -1.000000e+00 -0.000000e+00
    outer loop
      vertex   -4.697942e+01 9.000000e+00 -3.465000e+01
      vertex   -5.380000e+01 9.000000e+00 -3.620000e+01
      vertex   -4.683640e+01 9.000000e+00 -3.483640e+01
    endloop
  endfacet
  facet normal 0.000000e+00 -1.000000e+00 -0.000000e+00
    outer loop
      vertex   -4.683640e+01 9.000000e+00 -3.483640e+01
      vertex   -5.380000e+01 9.000000e+00 -3.620000e+01
      vertex   -4.665000e+01 9.000000e+00 -3.497942e+01
    endloop
  endfacet
  facet normal 0.000000e+00 -1.000000e+00 -0.000000e+00
    outer loop
      vertex   -4.665000e+01 9.000000e+00 -3.497942e+01
      vertex   -5.380000e+01 9.000000e+00 -3.620000e+01
      vertex   -4.643294e+01 9.000000e+00 -3.506933e+01
    endloop
  endfacet
  facet normal 0.000000e+00 -1.000000e+00 -0.000000e+00
    outer loop
      vertex   -4.643294e+01 9.000000e+00 -3.506933e+01
      vertex   -5.380000e+01 9.000000e+00 -3.620000e+01
      vertex   -4.620000e+01 9.000000e+00 -3.510000e+01
    endloop
  endfacet
  facet normal 0.000000e+00 -1.000000e+00 -0.000000e+00
    outer loop
      vertex   -4.620000e+01 9.000000e+00 -3.510000e+01
      vertex   -5.380000e+01 9.000000e+00 -3.620000e+01
      vertex   -3.620000e+01 9.000000e+00 -3.620000e+01
    endloop
  endfacet
  facet normal 0.000000e+00 -1.000000e+00 0.000000e+00
    outer loop
      vertex   -4.620000e+01 9.000000e+00 -3.510000e+01
      vertex   -3.620000e+01 9.000000e+00 -3.620000e+01
      vertex   -4.596706e+01 9.000000e+00 -3.506933e+01
    endloop
  endfacet
  facet normal 0.000000e+00 -1.000000e+00 0.000000e+00
    outer loop
      vertex   -4.596706e+01 9.000000e+00 -3.506933e+01
      vertex   -3.620000e+01 9.000000e+00 -3.620000e+01
      vertex   -4.575000e+01 9.000000e+00 -3.497942e+01
    endloop
  endfacet
  facet normal 0.000000e+00 -1.000000e+00 0.000000e+00
    outer loop
      vertex   -4.575000e+01 9.000000e+00 -3.497942e+01
      vertex   -3.620000e+01 9.000000e+00 -3.620000e+01
      vertex   -4.556360e+01 9.000000e+00 -3.483640e+01
    endloop
  endfacet
  facet normal 0.000000e+00 -1.000000e+00 0.000000e+00
    outer loop
      vertex   -4.556360e+01 9.000000e+00 -3.483640e+01
      vertex   -3.620000e+01 9.000000e+00 -3.620000e+01
      vertex   -4.542058e+01 9.000000e+00 -3.465000e+01
    endloop
  endfacet
  facet normal 0.000000e+00 -1.000000e+00 0.000000e+00
    outer loop
      vertex   -4.542058e+01 9.000000e+00 -3.465000e+01
      vertex   -3.620000e+01 9.000000e+00 -3.620000e+01
      vertex   -4.533067e+01 9.000000e+00 -3.443294e+01
    endloop
  endfacet
  facet normal 0.000000e+00 -1.000000e+00 0.000000e+00
    outer loop
      vertex   -5.330667e+00 9.000000e+00 -3.443294e+01
      vertex   -1.200000e+00 9.000000e+00 -3.620000e+01
      vertex   -5.300000e+00 9.000000e+00 -3.420000e+01
    endloop
  endfacet
  facet normal 0.000000e+00 -1.000000e+00 0.000000e+00
    outer loop
      vertex   -5.300000e+00 9.000000e+00 -3.420000e+01
      vertex   -1.200000e+00 9.000000e+00 -3.620000e+01
      vertex   -1.200000e+00 9.000000e+00 -3.220000e+01
    endloop
  endfacet
  facet normal 0.000000e+00 -1.000000e+00 0.000000e+00
    outer loop
      vertex   -5.300000e+00 9.000000e+00 -3.420000e+01
      vertex   -1.200000e+00 9.000000e+00 -3.220000e+01
      vertex   -5.330667e+00 9.000000e+00 -3.396706e+01
    endloop
  endfacet
  facet normal 0.000000e+00 -1.000000e+00 0.000000e+00
    outer loop
      vertex   -5.330667e+00 9.000000e+00 -3.396706e+01
      vertex   -1.200000e+00 9.000000e+00 -3.220000e+01
      vertex   -5.420577e+00 9.000000e+00 -3.375000e+01
    endloop
  endfacet
  facet normal 0.000000e+00 -1.000000e+00 0.000000e+00
    outer loop
      vertex   -5.420577e+00 9.000000e+00 -3.375000e+01
      vertex   -1.200000e+00 9.000000e+00 -3.220000e+01
      vertex   -5.563604e+00 9.000000e+00 -3.356360e+01
    endloop
  endfacet
  facet normal 0.000000e+00 -1.000000e+00 0.000000e+00
    outer loop
      vertex   -5.563604e+00 9.000000e+00 -3.356360e+01
      vertex   -1.200000e+00 9.000000e+00 -3.220000e+01
      vertex   -5.750000e+00 9.000000e+00 -3.342058e+01
    endloop
  endfacet
  facet normal 0.000000e+00 -1.000000e+00 0.000000e+00
    outer loop
      vertex   -5.750000e+00 9.000000e+00 -3.342058e+01
      vertex   -1.200000e+00 9.000000e+00 -3.220000e+01
      vertex   -5.967063e+00 9.000000e+00 -3.333067e+01
    endloop
  endfacet
  facet normal 0.000000e+00 -1.000000e+00 0.000000e+00
    outer loop
      vertex   -5.967063e+00 9.000000e+00 -3.333067e+01
      vertex   -1.200000e+00 9.000000e+00 -3.220000e+01
      vertex   -6.200000e+00 9.000000e+00 -3.330000e+01
    endloop
  endfacet
  facet normal 0.000000e+00 -1.000000e+00 0.000000e+00
    outer loop
      vertex   -6.200000e+00 9.000000e+00 -3.330000e+01
      vertex   -1.200000e+00 9.000000e+00 -3.220000e+01
      vertex   -1.620000e+01 9.000000e+00 -3.220000e+01
    endloop
  endfacet
  facet normal -0.000000e+00 -1.000000e+00 0.000000e+00
    outer loop
      vertex   -6.200000e+00 9.000000e+00 -3.330000e+01
      vertex   -1.620000e+01 9.000000e+00 -3.220000e+01
      vertex   -6.432937e+00 9.000000e+00 -3.333067e+01
    endloop
  endfacet
  facet normal -0.000000e+00 -1.000000e+00 0.000000e+00
    outer loop
      vertex   -6.432937e+00 9.000000e+00 -3.333067e+01
      vertex   -1.620000e+01 9.000000e+00 -3.220000e+01
      vertex   -6.650000e+00 9.000000e+00 -3.342058e+01
    endloop
  endfacet
  facet normal -0.000000e+00 -1.000000e+00 0.000000e+00
    outer loop
      vertex   -6.650000e+00 9.000000e+00 -3.342058e+01
      vertex   -1.620000e+01 9.000000e+00 -3.220000e+01
      vertex   -6.836396e+00 9.000000e+00 -3.356360e+01
    endloop
  endfacet
  facet normal -0.000000e+00 -1.000000e+00 0.000000e+00
    outer loop
      vertex   -6.836396e+00 9.000000e+00 -3.356360e+01
      vertex   -1.620000e+01 9.000000e+00 -3.220000e+01
      vertex   -6.979423e+00 9.000000e+00 -3.375000e+01
    endloop
  endfacet
  facet normal -0.000000e+00 -1.000000e+00 0.000000e+00
    outer loop
      vertex   -6.979423e+00 9.000000e+00 -3.375000e+01
      vertex   -1.620000e+01 9.000000e+00 -3.220000e+01
      vertex   -7.069333e+00 9.000000e+00 -3.396706e+01
    endloop
  endfacet
  facet normal -0.000000e+00 -1.000000e+00 0.000000e+00
    outer loop
      vertex   -7.069333e+00 9.000000e+00 -3.396706e+01
      vertex   -1.620000e+01 9.000000e+00 -3.220000e+01
      vertex   -7.100000e+00 9.000000e+00 -3.420000e+01
    endloop
  endfacet
  facet normal -0.000000e+00 -1.000000e+00 0.000000e+00
    outer loop
      vertex   -7.100000e+00 9.000000e+00 -3.420000e+01
      vertex   -1.620000e+01 9.000000e+00 -3.220000e+01
      vertex   -1.620000e+01 9.000000e+00 -3.620000e+01
    endloop
  endfacet
  facet normal 0.000000e+00 -1.000000e+00 -0.000000e+00
    outer loop
      vertex   -7.100000e+00 9.000000e+00 -3.420000e+01
      vertex   -1.620000e+01 9.000000e+00 -3.620000e+01
      vertex   -7.069333e+00 9.000000e+00 -3.443294e+01
    endloop
  endfacet
  facet normal 0.000000e+00 -1.000000e+00 -0.000000e+00
    outer loop
      vertex   -7.069333e+00 9.000000e+00 -3.443294e+01
      vertex   -1.620000e+01 9.000000e+00 -3.620000e+01
      vertex   -6.979423e+00 9.000000e+00 -3.465000e+01
    endloop
  endfacet
  facet normal 0.000000e+00 -1.000000e+00 -0.000000e+00
    outer loop
      vertex   -6.979423e+00 9.000000e+00 -3.465000e+01
      vertex   -1.620000e+01 9.000000e+00 -3.620000e+01
      vertex   -6.836396e+00 9.000000e+00 -3.483640e+01
    endloop
  endfacet
  facet normal 0.000000e+00 -1.000000e+00 -0.000000e+00
    outer loop
      vertex   -6.836396e+00 9.000000e+00 -3.483640e+01
      vertex   -1.620000e+01 9.000000e+00 -3.620000e+01
      vertex   -6.650000e+00 9.000000e+00 -3.497942e+01
    endloop
  endfacet
  facet normal 0.000000e+00 -1.000000e+00 -0.000000e+00
    outer loop
      vertex   -6.650000e+00 9.000000e+00 -3.497942e+01
      vertex   -1.620000e+01 9.000000e+00 -3.620000e+01
      vertex   -6.432937e+00 9.000000e+00 -3.506933e+01
    endloop
  endfacet
  facet normal 0.000000e+00 -1.000000e+00 -0.000000e+00
    outer loop
      vertex   -6.432937e+00 9.000000e+00 -3.506933e+01
      vertex   -1.620000e+01 9.000000e+00 -3.620000e+01
      vertex   -6.200000e+00 9.000000e+00 -3.510000e+01
    endloop
  endfacet
  facet normal 0.000000e+00 -1.000000e+00 -0.000000e+00
    outer loop
      vertex   -6.200000e+00 9.000000e+00 -3.510000e+01
      vertex   -1.620000e+01 9.000000e+00 -3.620000e+01
      vertex   -1.200000e+00 9.000000e+00 -3.620000e+01
    endloop
  endfacet
  facet normal 0.000000e+00 -1.000000e+00 0.000000e+00
    outer loop
      vertex   -6.200000e+00 9.000000e+00 -3.510000e+01
      vertex   -1.200000e+00 9.000000e+00 -3.620000e+01
      vertex   -5.967063e+00 9.000000e+00 -3.506933e+01
    endloop
  endfacet
  facet normal 0.000000e+00 -1.000000e+00 0.000000e+00
    outer loop
      vertex   -5.967063e+00 9.000000e+00 -3.506933e+01
      vertex   -1.200000e+00 9.000000e+00 -3.620000e+01
      vertex   -5.750000e+00 9.000000e+00 -3.497942e+01
    endloop
  endfacet
  facet normal 0.000000e+00 -1.000000e+00 0.000000e+00
    outer loop
      vertex   -5.750000e+00 9.000000e+00 -3.497942e+01
      vertex   -1.200000e+00 9.000000e+00 -3.620000e+01
      vertex   -5.563604e+00 9.000000e+00 -3.483640e+01
    endloop
  endfacet
  facet normal 0.000000e+00 -1.000000e+00 0.000000e+00
    outer loop
      vertex   -5.563604e+00 9.000000e+00 -3.483640e+01
      vertex   -1.200000e+00 9.000000e+00 -3.620000e+01
      vertex   -5.420577e+00 9.000000e+00 -3.465000e+01
    endloop
  endfacet
  facet normal 0.000000e+00 -1.000000e+00 0.000000e+00
    outer loop
      vertex   -5.420577e+00 9.000000e+00 -3.465000e+01
      vertex   -1.200000e+00 9.000000e+00 -3.620000e+01
      vertex   -5.330667e+00 9.000000e+00 -3.443294e+01
    endloop
  endfacet
  facet normal 0.000000e+00 -1.000000e+00 0.000000e+00
    outer loop
      vertex   -5.500000e+01 9.000000e+00 -4.700000e+01
      vertex   -5.380000e+01 9.000000e+00 -3.220000e+01
      vertex   -5.500000e+01 9.000000e+00 -2.000000e+01
    endloop
  endfacet
  facet normal 0.000000e+00 -1.000000e+00 0.000000e+00
    outer loop
      vertex   -5.500000e+01 9.000000e+00 -2.000000e+01
      vertex   -5.380000e+01 9.000000e+00 -3.220000e+01
      vertex   -5.380000e+01 9.000000e+00 -2.120000e+01
    endloop
  endfacet
  facet normal 0.000000e+00 -1.000000e+00 0.000000e+00
    outer loop
      vertex   -5.500000e+01 9.000000e+00 -2.000000e+01
      vertex   -5.380000e+01 9.000000e+00 -2.120000e+01
      vertex   -4.430000e+01 9.000000e+00 -2.000000e+01
    endloop
  endfacet
  facet normal 0.000000e+00 -1.000000e+00 -0.000000e+00
    outer loop
      vertex   -4.430000e+01 9.000000e+00 -2.000000e+01
      vertex   -5.380000e+01 9.000000e+00 -2.120000e+01
      vertex   -4.430000e+01 9.000000e+00 -2.120000e+01
    endloop
  endfacet
  facet normal 0.000000e+00 -1.000000e+00 0.000000e+00
    outer loop
      vertex   0.000000e+00 9.000000e+00 -4.700000e+01
      vertex   -5.380000e+01 9.000000e+00 -4.580000e+01
      vertex   -5.500000e+01 9.000000e+00 -4.700000e+01
    endloop
  endfacet
  facet normal 0.000000e+00 -1.000000e+00 0.000000e+00
    outer loop
      vertex   -5.500000e+01 9.000000e+00 -4.700000e+01
      vertex   -5.380000e+01 9.000000e+00 -4.580000e+01
      vertex   -5.380000e+01 9.000000e+00 -3.620000e+01
    endloop
  endfacet
  facet normal 0.000000e+00 -1.000000e+00 0.000000e+00
    outer loop
      vertex   -5.500000e+01 9.000000e+00 -4.700000e+01
      vertex   -5.380000e+01 9.000000e+00 -3.620000e+01
      vertex   -5.380000e+01 9.000000e+00 -3.220000e+01
    endloop
  endfacet
  facet normal 0.000000e+00 -1.000000e+00 -0.000000e+00
    outer loop
      vertex   0.000000e+00 9.000000e+00 -2.000000e+01
      vertex   -1.200000e+00 9.000000e+00 -3.220000e+01
      vertex   0.000000e+00 9.000000e+00 -4.700000e+01
    endloop
  endfacet
  facet normal 0.000000e+00 -1.000000e+00 0.000000e+00
    outer loop
      vertex   0.000000e+00 9.000000e+00 -4.700000e+01
      vertex   -1.200000e+00 9.000000e+00 -3.220000e+01
      vertex   -1.200000e+00 9.000000e+00 -3.620000e+01
    endloop
  endfacet
  facet normal 0.000000e+00 -1.000000e+00 0.000000e+00
    outer loop
      vertex   0.000000e+00 9.000000e+00 -4.700000e+01
      vertex   -1.200000e+00 9.000000e+00 -3.620000e+01
      vertex   -1.200000e+00 9.000000e+00 -4.580000e+01
    endloop
  endfacet
  facet normal -0.000000e+00 -1.000000e+00 0.000000e+00
    outer loop
      vertex   0.000000e+00 9.000000e+00 -2.000000e+01
      vertex   -1.200000e+00 9.000000e+00 -2.000000e+01
      vertex   -1.200000e+00 9.000000e+00 -3.220000e+01
    endloop
  endfacet
  facet normal -0.000000e+00 -1.000000e+00 -0.000000e+00
    outer loop
      vertex   -1.200000e+00 9.000000e+00 -4.580000e+01
      vertex   -5.380000e+01 9.000000e+00 -4.580000e+01
      vertex   0.000000e+00 9.000000e+00 -4.700000e+01
    endloop
  endfacet
  facet normal -0.000000e+00 -1.000000e+00 -0.000000e+00
    outer loop
      vertex   -5.330667e+00 1.310000e+01 -3.396706e+01
      vertex   -7.069333e+00 1.310000e+01 -3.396706e+01
      vertex   -5.300000e+00 1.310000e+01 -3.420000e+01
    endloop
  endfacet
  facet normal 0.000000e+00 -1.000000e+00 0.000000e+00
    outer loop
      vertex   -5.300000e+00 1.310000e+01 -3.420000e+01
      vertex   -7.069333e+00 1.310000e+01 -3.396706e+01
      vertex   -7.100000e+00 1.310000e+01 -3.420000e+01
    endloop
  endfacet
  facet normal -0.000000e+00 -1.000000e+00 0.000000e+00
    outer loop
      vertex   -5.300000e+00 1.310000e+01 -3.420000e+01
      vertex   -7.100000e+00 1.310000e+01 -3.420000e+01
      vertex   -5.330667e+00 1.310000e+01 -3.443294e+01
    endloop
  endfacet
  facet normal 0.000000e+00 -1.000000e+00 0.000000e+00
    outer loop
      vertex   -5.330667e+00 1.310000e+01 -3.443294e+01
      vertex   -7.100000e+00 1.310000e+01 -3.420000e+01
      vertex   -7.069333e+00 1.310000e+01 -3.443294e+01
    endloop
  endfacet
  facet normal -0.000000e+00 -1.000000e+00 0.000000e+00
    outer loop
      vertex   -5.330667e+00 1.310000e+01 -3.443294e+01
      vertex   -7.069333e+00 1.310000e+01 -3.443294e+01
      vertex   -5.420577e+00 1.310000e+01 -3.465000e+01
    endloop
  endfacet
  facet normal 0.000000e+00 -1.000000e+00 0.000000e+00
    outer loop
      vertex   -5.420577e+00 1.310000e+01 -3.465000e+01
      vertex   -7.069333e+00 1.310000e+01 -3.443294e+01
      vertex   -6.979423e+00 1.310000e+01 -3.465000e+01
    endloop
  endfacet
  facet normal -0.000000e+00 -1.000000e+00 0.000000e+00
    outer loop
      vertex   -5.420577e+00 1.310000e+01 -3.465000e+01
      vertex   -6.979423e+00 1.310000e+01 -3.465000e+01
      vertex   -5.563604e+00 1.310000e+01 -3.483640e+01
    endloop
  endfacet
  facet normal 0.000000e+00 -1.000000e+00 0.000000e+00
    outer loop
      vertex   -5.563604e+00 1.310000e+01 -3.483640e+01
      vertex   -6.979423e+00 1.310000e+01 -3.465000e+01
      vertex   -6.836396e+00 1.310000e+01 -3.483640e+01
    endloop
  endfacet
  facet normal -0.000000e+00 -1.000000e+00 0.000000e+00
    outer loop
      vertex   -5.563604e+00 1.310000e+01 -3.483640e+01
      vertex   -6.836396e+00 1.310000e+01 -3.483640e+01
      vertex   -5.750000e+00 1.310000e+01 -3.497942e+01
    endloop
  endfacet
  facet normal 0.000000e+00 -1.000000e+00 0.000000e+00
    outer loop
      vertex   -5.750000e+00 1.310000e+01 -3.497942e+01
      vertex   -6.836396e+00 1.310000e+01 -3.483640e+01
      vertex   -6.650000e+00 1.310000e+01 -3.497942e+01
    endloop
  endfacet
  facet normal -0.000000e+00 -1.000000e+00 0.000000e+00
    outer loop
      vertex   -5.750000e+00 1.310000e+01 -3.497942e+01
      vertex   -6.650000e+00 1.310000e+01 -3.497942e+01
      vertex   -5.967063e+00 1.310000e+01 -3.506933e+01
    endloop
  endfacet
  facet normal 0.000000e+00 -1.000000e+00 0.000000e+00
    outer loop
      vertex   -5.967063e+00 1.310000e+01 -3.506933e+01
      vertex   -6.650000e+00 1.310000e+01 -3.497942e+01
      vertex   -6.432937e+00 1.310000e+01 -3.506933e+01
    endloop
  endfacet
  facet normal -0.000000e+00 -1.000000e+00 0.000000e+00
    outer loop
      vertex   -5.967063e+00 1.310000e+01 -3.506933e+01
      vertex   -6.432937e+00 1.310000e+01 -3.506933e+01
      vertex   -6.200000e+00 1.310000e+01 -3.510000e+01
    endloop
  endfacet
  facet normal 0.000000e+00 -1.000000e+00 0.000000e+00
    outer loop
      vertex   -7.069333e+00 1.310000e+01 -3.396706e+01
      vertex   -5.330667e+00 1.310000e+01 -3.396706e+01
      vertex   -6.979423e+00 1.310000e+01 -3.375000e+01
    endloop
  endfacet
  facet normal 0.000000e+00 -1.000000e+00 0.000000e+00
    outer loop
      vertex   -6.979423e+00 1.310000e+01 -3.375000e+01
      vertex   -5.330667e+00 1.310000e+01 -3.396706e+01
      vertex   -5.420577e+00 1.310000e+01 -3.375000e+01
    endloop
  endfacet
  facet normal 0.000000e+00 -1.000000e+00 0.000000e+00
    outer loop
      vertex   -6.979423e+00 1.310000e+01 -3.375000e+01
      vertex   -5.420577e+00 1.310000e+01 -3.375000e+01
      vertex   -6.836396e+00 1.310000e+01 -3.356360e+01
    endloop
  endfacet
  facet normal 0.000000e+00 -1.000000e+00 0.000000e+00
    outer loop
      vertex   -6.836396e+00 1.310000e+01 -3.356360e+01
      vertex   -5.420577e+00 1.310000e+01 -3.375000e+01
      vertex   -5.563604e+00 1.310000e+01 -3.356360e+01
    endloop
  endfacet
  facet normal 0.000000e+00 -1.000000e+00 0.000000e+00
    outer loop
      vertex   -6.836396e+00 1.310000e+01 -3.356360e+01
      vertex   -5.563604e+00 1.310000e+01 -3.356360e+01
      vertex   -6.650000e+00 1.310000e+01 -3.342058e+01
    endloop
  endfacet
  facet normal 0.000000e+00 -1.000000e+00 0.000000e+00
    outer loop
      vertex   -6.650000e+00 1.310000e+01 -3.342058e+01
      vertex   -5.563604e+00 1.310000e+01 -3.356360e+01
      vertex   -5.750000e+00 1.310000e+01 -3.342058e+01
    endloop
  endfacet
  facet normal 0.000000e+00 -1.000000e+00 0.000000e+00
    outer loop
      vertex   -6.650000e+00 1.310000e+01 -3.342058e+01
      vertex   -5.750000e+00 1.310000e+01 -3.342058e+01
      vertex   -6.432937e+00 1.310000e+01 -3.333067e+01
    endloop
  endfacet
  facet normal 0.000000e+00 -1.000000e+00 0.000000e+00
    outer loop
      vertex   -6.432937e+00 1.310000e+01 -3.333067e+01
      vertex   -5.750000e+00 1.310000e+01 -3.342058e+01
      vertex   -5.967063e+00 1.310000e+01 -3.333067e+01
    endloop
  endfacet
  facet normal 0.000000e+00 -1.000000e+00 0.000000e+00
    outer loop
      vertex   -6.432937e+00 1.310000e+01 -3.333067e+01
      vertex   -5.967063e+00 1.310000e+01 -3.333067e+01
      vertex   -6.200000e+00 1.310000e+01 -3.330000e+01
    endloop
  endfacet
  facet normal 0.000000e+00 1.000000e+00 0.000000e+00
    outer loop
      vertex   -3.757445e+01 1.410000e+01 -3.658422e+01
      vertex   -3.757445e+01 1.410000e+01 -4.528422e+01
      vertex   -5.500000e+01 1.410000e+01 -4.700000e+01
    endloop
  endfacet
  facet normal 0.000000e+00 1.000000e+00 0.000000e+00
    outer loop
      vertex   -5.500000e+01 1.410000e+01 -4.700000e+01
      vertex   -3.757445e+01 1.410000e+01 -4.528422e+01
      vertex   -2.157445e+01 1.410000e+01 -4.528422e+01
    endloop
  endfacet
  facet normal 0.000000e+00 1.000000e+00 0.000000e+00
    outer loop
      vertex   -5.500000e+01 1.410000e+01 -4.700000e+01
      vertex   -2.157445e+01 1.410000e+01 -4.528422e+01
      vertex   0.000000e+00 1.410000e+01 -4.700000e+01
    endloop
  endfacet
  facet normal 0.000000e+00 1.000000e+00 0.000000e+00
    outer loop
      vertex   0.000000e+00 1.410000e+01 -4.700000e+01
      vertex   -2.157445e+01 1.410000e+01 -4.528422e+01
      vertex   -2.157445e+01 1.410000e+01 -3.658422e+01
    endloop
  endfacet
  facet normal 0.000000e+00 1.000000e+00 -0.000000e+00
    outer loop
      vertex   0.000000e+00 1.410000e+01 -4.700000e+01
      vertex   -2.157445e+01 1.410000e+01 -3.658422e+01
      vertex   0.000000e+00 1.410000e+01 -2.000000e+01
    endloop
  endfacet
  facet normal 0.000000e+00 1.000000e+00 0.000000e+00
    outer loop
      vertex   0.000000e+00 1.410000e+01 -2.000000e+01
      vertex   -2.157445e+01 1.410000e+01 -3.658422e+01
      vertex   -5.500000e+01 1.410000e+01 -2.000000e+01
    endloop
  endfacet
  facet normal 0.000000e+00 1.000000e+00 0.000000e+00
    outer loop
      vertex   -5.500000e+01 1.410000e+01 -2.000000e+01
      vertex   -2.157445e+01 1.410000e+01 -3.658422e+01
      vertex   -3.757445e+01 1.410000e+01 -3.658422e+01
    endloop
  endfacet
  facet normal 0.000000e+00 1.000000e+00 0.000000e+00
    outer loop
      vertex   -5.500000e+01 1.410000e+01 -2.000000e+01
      vertex   -3.757445e+01 1.410000e+01 -3.658422e+01
      vertex   -5.500000e+01 1.410000e+01 -4.700000e+01
    endloop
  endfacet
  facet normal -0.000000e+00 -1.000000e+00 -0.000000e+00
    outer loop
      vertex   -4.533067e+01 1.310000e+01 -3.396706e+01
      vertex   -4.706933e+01 1.310000e+01 -3.396706e+01
      vertex   -4.530000e+01 1.310000e+01 -3.420000e+01
    endloop
  endfacet
  facet normal 0.000000e+00 -1.000000e+00 0.000000e+00
    outer loop
      vertex   -4.530000e+01 1.310000e+01 -3.420000e+01
      vertex   -4.706933e+01 1.310000e+01 -3.396706e+01
      vertex   -4.710000e+01 1.310000e+01 -3.420000e+01
    endloop
  endfacet
  facet normal -0.000000e+00 -1.000000e+00 0.000000e+00
    outer loop
      vertex   -4.530000e+01 1.310000e+01 -3.420000e+01
      vertex   -4.710000e+01 1.310000e+01 -3.420000e+01
      vertex   -4.533067e+01 1.310000e+01 -3.443294e+01
    endloop
  endfacet
  facet normal 0.000000e+00 -1.000000e+00 0.000000e+00
    outer loop
      vertex   -4.533067e+01 1.310000e+01 -3.443294e+01
      vertex   -4.710000e+01 1.310000e+01 -3.420000e+01
      vertex   -4.706933e+01 1.310000e+01 -3.443294e+01
    endloop
  endfacet
  facet normal -0.000000e+00 -1.000000e+00 0.000000e+00
    outer loop
      vertex   -4.533067e+01 1.310000e+01 -3.443294e+01
      vertex   -4.706933e+01 1.310000e+01 -3.443294e+01
      vertex   -4.542058e+01 1.310000e+01 -3.465000e+01
    endloop
  endfacet
  facet normal 0.000000e+00 -1.000000e+00 0.000000e+00
    outer loop
      vertex   -4.542058e+01 1.310000e+01 -3.465000e+01
      vertex   -4.706933e+01 1.310000e+01 -3.443294e+01
      vertex   -4.697942e+01 1.310000e+01 -3.465000e+01
    endloop
  endfacet
  facet normal -0.000000e+00 -1.000000e+00 0.000000e+00
    outer loop
      vertex   -4.542058e+01 1.310000e+01 -3.465000e+01
      vertex   -4.697942e+01 1.310000e+01 -3.465000e+01
      vertex   -4.556360e+01 1.310000e+01 -3.483640e+01
    endloop
  endfacet
  facet normal 0.000000e+00 -1.000000e+00 0.000000e+00
    outer loop
      vertex   -4.556360e+01 1.310000e+01 -3.483640e+01
      vertex   -4.697942e+01 1.310000e+01 -3.465000e+01
      vertex   -4.683640e+01 1.310000e+01 -3.483640e+01
    endloop
  endfacet
  facet normal -0.000000e+00 -1.000000e+00 0.000000e+00
    outer loop
      vertex   -4.556360e+01 1.310000e+01 -3.483640e+01
      vertex   -4.683640e+01 1.310000e+01 -3.483640e+01
      vertex   -4.575000e+01 1.310000e+01 -3.497942e+01
    endloop
  endfacet
  facet normal 0.000000e+00 -1.000000e+00 0.000000e+00
    outer loop
      vertex   -4.575000e+01 1.310000e+01 -3.497942e+01
      vertex   -4.683640e+01 1.310000e+01 -3.483640e+01
      vertex   -4.665000e+01 1.310000e+01 -3.497942e+01
    endloop
  endfacet
  facet normal -0.000000e+00 -1.000000e+00 0.000000e+00
    outer loop
      vertex   -4.575000e+01 1.310000e+01 -3.497942e+01
      vertex   -4.665000e+01 1.310000e+01 -3.497942e+01
      vertex   -4.596706e+01 1.310000e+01 -3.506933e+01
    endloop
  endfacet
  facet normal 0.000000e+00 -1.000000e+00 0.000000e+00
    outer loop
      vertex   -4.596706e+01 1.310000e+01 -3.506933e+01
      vertex   -4.665000e+01 1.310000e+01 -3.497942e+01
      vertex   -4.643294e+01 1.310000e+01 -3.506933e+01
    endloop
  endfacet
  facet normal -0.000000e+00 -1.000000e+00 0.000000e+00
    outer loop
      vertex   -4.596706e+01 1.310000e+01 -3.506933e+01
      vertex   -4.643294e+01 1.310000e+01 -3.506933e+01
      vertex   -4.620000e+01 1.310000e+01 -3.510000e+01
    endloop
  endfacet
  facet normal 0.000000e+00 -1.000000e+00 0.000000e+00
    outer loop
      vertex   -4.706933e+01 1.310000e+01 -3.396706e+01
      vertex   -4.533067e+01 1.310000e+01 -3.396706e+01
      vertex   -4.697942e+01 1.310000e+01 -3.375000e+01
    endloop
  endfacet
  facet normal 0.000000e+00 -1.000000e+00 0.000000e+00
    outer loop
      vertex   -4.697942e+01 1.310000e+01 -3.375000e+01
      vertex   -4.533067e+01 1.310000e+01 -3.396706e+01
      vertex   -4.542058e+01 1.310000e+01 -3.375000e+01
    endloop
  endfacet
  facet normal 0.000000e+00 -1.000000e+00 0.000000e+00
    outer loop
      vertex   -4.697942e+01 1.310000e+01 -3.375000e+01
      vertex   -4.542058e+01 1.310000e+01 -3.375000e+01
      vertex   -4.683640e+01 1.310000e+01 -3.356360e+01
    endloop
  endfacet
  facet normal 0.000000e+00 -1.000000e+00 0.000000e+00
    outer loop
      vertex   -4.683640e+01 1.310000e+01 -3.356360e+01
      vertex   -4.542058e+01 1.310000e+01 -3.375000e+01
      vertex   -4.556360e+01 1.310000e+01 -3.356360e+01
    endloop
  endfacet
  facet normal 0.000000e+00 -1.000000e+00 0.000000e+00
    outer loop
      vertex   -4.683640e+01 1.310000e+01 -3.356360e+01
      vertex   -4.556360e+01 1.310000e+01 -3.356360e+01
      vertex   -4.665000e+01 1.310000e+01 -3.342058e+01
    endloop
  endfacet
  facet normal 0.000000e+00 -1.000000e+00 0.000000e+00
    outer loop
      vertex   -4.665000e+01 1.310000e+01 -3.342058e+01
      vertex   -4.556360e+01 1.310000e+01 -3.356360e+01
      vertex   -4.575000e+01 1.310000e+01 -3.342058e+01
    endloop
  endfacet
  facet normal 0.000000e+00 -1.000000e+00 0.000000e+00
    outer loop
      vertex   -4.665000e+01 1.310000e+01 -3.342058e+01
      vertex   -4.575000e+01 1.310000e+01 -3.342058e+01
      vertex   -4.643294e+01 1.310000e+01 -3.333067e+01
    endloop
  endfacet
  facet normal 0.000000e+00 -1.000000e+00 0.000000e+00
    outer loop
      vertex   -4.643294e+01 1.310000e+01 -3.333067e+01
      vertex   -4.575000e+01 1.310000e+01 -3.342058e+01
      vertex   -4.596706e+01 1.310000e+01 -3.333067e+01
    endloop
  endfacet
  facet normal 0.000000e+00 -1.000000e+00 0.000000e+00
    outer loop
      vertex   -4.643294e+01 1.310000e+01 -3.333067e+01
      vertex   -4.596706e+01 1.310000e+01 -3.333067e+01
      vertex   -4.620000e+01 1.310000e+01 -3.330000e+01
    endloop
  endfacet
  facet normal 0.000000e+00 -0.000000e+00 1.000000e+00
    outer loop
      vertex   -1.200000e+00 1.310000e+01 -2.000000e+01
      vertex   0.000000e+00 1.410000e+01 -2.000000e+01
      vertex   -4.430000e+01 1.310000e+01 -2.000000e+01
    endloop
  endfacet
  facet normal 0.000000e+00 -0.000000e+00 1.000000e+00
    outer loop
      vertex   -4.430000e+01 1.310000e+01 -2.000000e+01
      vertex   0.000000e+00 1.410000e+01 -2.000000e+01
      vertex   -5.500000e+01 1.410000e+01 -2.000000e+01
    endloop
  endfacet
  facet normal 0.000000e+00 0.000000e+00 1.000000e+00
    outer loop
      vertex   -4.430000e+01 1.310000e+01 -2.000000e+01
      vertex   -5.500000e+01 1.410000e+01 -2.000000e+01
      vertex   -5.500000e+01 9.000000e+00 -2.000000e+01
    endloop
  endfacet
  facet normal 0.000000e+00 0.000000e+00 1.000000e+00
    outer loop
      vertex   -1.200000e+00 9.000000e+00 -2.000000e+01
      vertex   0.000000e+00 9.000000e+00 -2.000000e+01
      vertex   -1.200000e+00 1.310000e+01 -2.000000e+01
    endloop
  endfacet
  facet normal -0.000000e+00 0.000000e+00 1.000000e+00
    outer loop
      vertex   -1.200000e+00 1.310000e+01 -2.000000e+01
      vertex   0.000000e+00 9.000000e+00 -2.000000e+01
      vertex   0.000000e+00 1.410000e+01 -2.000000e+01
    endloop
  endfacet
  facet normal 0.000000e+00 0.000000e+00 1.000000e+00
    outer loop
      vertex   -5.500000e+01 9.000000e+00 -2.000000e+01
      vertex   -4.430000e+01 9.000000e+00 -2.000000e+01
      vertex   -4.430000e+01 1.310000e+01 -2.000000e+01
    endloop
  endfacet
  facet normal 0.000000e+00 -1.000000e+00 -0.000000e+00
    outer loop
      vertex   -3.757445e+01 1.310000e+01 -4.528422e+01
      vertex   -5.380000e+01 1.310000e+01 -4.580000e+01
      vertex   -2.157445e+01 1.310000e+01 -4.528422e+01
    endloop
  endfacet
  facet normal 0.000000e+00 -1.000000e+00 -0.000000e+00
    outer loop
      vertex   -2.157445e+01 1.310000e+01 -4.528422e+01
      vertex   -5.380000e+01 1.310000e+01 -4.580000e+01
      vertex   -1.200000e+00 1.310000e+01 -4.580000e+01
    endloop
  endfacet
  facet normal 0.000000e+00 -1.000000e+00 0.000000e+00
    outer loop
      vertex   -2.157445e+01 1.310000e+01 -4.528422e+01
      vertex   -1.200000e+00 1.310000e+01 -4.580000e+01
      vertex   -1.620000e+01 1.310000e+01 -3.620000e+01
    endloop
  endfacet
  facet normal 0.000000e+00 -1.000000e+00 0.000000e+00
    outer loop
      vertex   -1.620000e+01 1.310000e+01 -3.620000e+01
      vertex   -1.200000e+00 1.310000e+01 -4.580000e+01
      vertex   -1.200000e+00 1.310000e+01 -3.620000e+01
    endloop
  endfacet
  facet normal 0.000000e+00 -1.000000e+00 0.000000e+00
    outer loop
      vertex   -5.380000e+01 1.310000e+01 -4.580000e+01
      vertex   -3.757445e+01 1.310000e+01 -4.528422e+01
      vertex   -5.380000e+01 1.310000e+01 -3.620000e+01
    endloop
  endfacet
  facet normal 0.000000e+00 -1.000000e+00 0.000000e+00
    outer loop
      vertex   -5.380000e+01 1.310000e+01 -3.620000e+01
      vertex   -3.757445e+01 1.310000e+01 -4.528422e+01
      vertex   -3.757445e+01 1.310000e+01 -3.658422e+01
    endloop
  endfacet
  facet normal 0.000000e+00 -1.000000e+00 0.000000e+00
    outer loop
      vertex   -5.380000e+01 1.310000e+01 -3.620000e+01
      vertex   -3.757445e+01 1.310000e+01 -3.658422e+01
      vertex   -3.620000e+01 1.310000e+01 -3.620000e+01
    endloop
  endfacet
  facet normal 0.000000e+00 -1.000000e+00 -0.000000e+00
    outer loop
      vertex   -3.620000e+01 1.310000e+01 -3.620000e+01
      vertex   -3.757445e+01 1.310000e+01 -3.658422e+01
      vertex   -2.157445e+01 1.310000e+01 -3.658422e+01
    endloop
  endfacet
  facet normal 0.000000e+00 -1.000000e+00 0.000000e+00
    outer loop
      vertex   -3.620000e+01 1.310000e+01 -3.620000e+01
      vertex   -2.157445e+01 1.310000e+01 -3.658422e+01
      vertex   -3.620000e+01 1.310000e+01 -3.220000e+01
    endloop
  endfacet
  facet normal 0.000000e+00 -1.000000e+00 0.000000e+00
    outer loop
      vertex   -3.620000e+01 1.310000e+01 -3.220000e+01
      vertex   -2.157445e+01 1.310000e+01 -3.658422e+01
      vertex   -1.620000e+01 1.310000e+01 -3.220000e+01
    endloop
  endfacet
  facet normal 0.000000e+00 -1.000000e+00 0.000000e+00
    outer loop
      vertex   -3.620000e+01 1.310000e+01 -3.220000e+01
      vertex   -1.620000e+01 1.310000e+01 -3.220000e+01
      vertex   -4.430000e+01 1.310000e+01 -2.120000e+01
    endloop
  endfacet
  facet normal 0.000000e+00 -1.000000e+00 0.000000e+00
    outer loop
      vertex   -4.430000e+01 1.310000e+01 -2.120000e+01
      vertex   -1.620000e+01 1.310000e+01 -3.220000e+01
      vertex   -1.200000e+00 1.310000e+01 -2.000000e+01
    endloop
  endfacet
  facet normal 0.000000e+00 -1.000000e+00 0.000000e+00
    outer loop
      vertex   -4.430000e+01 1.310000e+01 -2.120000e+01
      vertex   -1.200000e+00 1.310000e+01 -2.000000e+01
      vertex   -4.430000e+01 1.310000e+01 -2.000000e+01
    endloop
  endfacet
  facet normal 0.000000e+00 -1.000000e+00 -0.000000e+00
    outer loop
      vertex   -1.620000e+01 1.310000e+01 -3.220000e+01
      vertex   -2.157445e+01 1.310000e+01 -3.658422e+01
      vertex   -1.620000e+01 1.310000e+01 -3.620000e+01
    endloop
  endfacet
  facet normal 0.000000e+00 -1.000000e+00 0.000000e+00
    outer loop
      vertex   -1.620000e+01 1.310000e+01 -3.620000e+01
      vertex   -2.157445e+01 1.310000e+01 -3.658422e+01
      vertex   -2.157445e+01 1.310000e+01 -4.528422e+01
    endloop
  endfacet
  facet normal 0.000000e+00 -1.000000e+00 0.000000e+00
    outer loop
      vertex   -5.380000e+01 1.310000e+01 -2.120000e+01
      vertex   -5.380000e+01 1.310000e+01 -3.220000e+01
      vertex   -4.430000e+01 1.310000e+01 -2.120000e+01
    endloop
  endfacet
  facet normal 0.000000e+00 -1.000000e+00 -0.000000e+00
    outer loop
      vertex   -4.430000e+01 1.310000e+01 -2.120000e+01
      vertex   -5.380000e+01 1.310000e+01 -3.220000e+01
      vertex   -3.620000e+01 1.310000e+01 -3.220000e+01
    endloop
  endfacet
  facet normal 0.000000e+00 -1.000000e+00 0.000000e+00
    outer loop
      vertex   -1.620000e+01 1.310000e+01 -3.220000e+01
      vertex   -1.200000e+00 1.310000e+01 -3.220000e+01
      vertex   -1.200000e+00 1.310000e+01 -2.000000e+01
    endloop
  endfacet
endsolid
